<?xml version="1.0" encoding="utf-8" ?>
<svg xmlns="http://www.w3.org/2000/svg" xmlns:xlink="http://www.w3.org/1999/xlink" width="289" height="402">
	<path transform="matrix(0.559858 -0.00391401 0.00391401 0.559858 0 2.00398)" d="M70.9901 352.027C58.6922 358.986 54.0414 341.32 51.9407 333.237C47.6455 316.71 52.9984 302.492 65.0071 290.884C74.8441 281.375 82.4223 279.753 81.7043 265.529L81.4733 222.532C81.4742 218.945 81.8588 218.744 79.1853 216.233L74.8394 212.243C43.202 184.55 52.5662 168.73 68.3231 138.246C80.3116 115.052 87.3654 98.9255 117.661 97.038C120.745 96.8459 124.209 96.7241 127.234 97.4295L128.499 97.7452C132.19 98.7359 135.133 100.713 137.031 104.039L137.568 105.011C138.814 116.683 127.278 115.169 120.186 114.984C103.501 114.547 95.4192 123.716 88.7745 137.189L81.554 151.455C68.5857 175.98 65.3663 179.358 88.16 200.134C99.7948 210.739 99.1828 215.12 99.2145 229.37L99.3007 267.372C99.3774 298.809 77.0503 293.784 69.2845 314.124C66.9849 320.147 68.051 328.06 70.3922 333.944C74.1506 343.39 77.5188 342.231 70.9901 352.027Z"/>
	<path transform="matrix(0.559858 -0.00391401 0.00391401 0.559858 0 2.00398)" d="M163.788 93.7172C161.179 83.7742 166.48 81.8944 174.36 78.235L187.166 71.8863C198.663 65.7403 198.406 63.792 201.706 51.5199C206.141 35.033 217.864 22.2201 235.436 19.4118C241.157 18.4974 247.445 18.9604 253.238 18.959L267.557 18.9908C285.638 19.1226 301.742 27.549 308.207 45.5075C311.98 55.9889 310.48 63.2651 320.7 69.9877C328.441 75.0801 337.126 79.0628 345.146 83.7393L369.637 98.7575C374.058 101.188 381.099 97.8748 385.762 97.3012C400.418 95.4988 415.951 100.27 426.492 110.826C433.594 117.939 437.688 128.661 442.511 137.375C460.845 170.504 467.637 187.042 435.778 212.9C432.972 215.179 430.814 216.161 430.74 220.02L430.537 268.613C430.283 289.483 477.614 294.533 455.984 345.287C454.809 348.046 452.955 351.363 449.99 352.505L448.268 352.951C446.783 353.285 445.307 353.106 443.807 352.971L443.422 352.779C436.306 348.925 436.926 343.611 439.834 337.611C443.214 330.634 444.718 323.086 442.649 315.484C437.339 295.967 411.987 297.18 412.531 267.548L412.647 254.678C412.692 223.165 406.083 214.893 431.502 193.269C447.257 179.867 438.222 166.617 430.765 152.973L422.383 137.186C415.95 124.85 408.956 114.551 392.787 114.769C368.699 115.096 374.885 123.163 350.361 107.76L335.612 98.8234C326.302 93.3611 316.132 88.8097 307.349 82.5451C291.384 71.1566 296.659 55.1763 287.855 45.368C278.565 35.0194 265.419 37.067 252.937 37.0774C226.963 37.0991 222.563 40.483 216.737 63.6931C212.894 78.9986 202.698 83.5748 189.779 90.4462C181.207 95.0054 171.857 103.134 163.788 93.7172Z"/>
	<path transform="matrix(0.559858 -0.00391401 0.00391401 0.559858 0 2.00398)" d="M85.7164 376.512C95.5037 374.332 96.5426 376.129 103.104 383.375C110.189 391.201 118.183 394.477 128.606 392.01C152.394 386.378 144.076 379.061 171.314 392.898C182.15 398.403 193.925 403.419 203.945 410.296C220.383 421.578 214.905 437.063 225.301 448.381C228.962 452.367 234.62 455.319 240.091 455.504L258.197 455.526C305.678 455.387 284.721 430.913 303.901 413.587C308.052 409.837 313.168 407.169 318.093 404.583L338.949 394.123C344.218 391.473 349.47 388.254 355.004 386.221C366.816 381.88 377.858 392.395 389.681 392.88C405.51 393.531 408.646 383.615 417.86 375.136C421.008 374.348 425.513 373.837 428.443 375.504C429.889 377.178 432.841 380.813 432.688 383.136C432.372 387.949 422.052 398.18 418.157 401.301C402.088 414.177 386.689 412.769 369.156 405.474C367.47 404.772 364.54 403.159 362.732 403.105C359.37 403.005 338.899 414.373 334.373 416.636C315.02 426.314 316.118 421.411 309.526 442.767C304.855 457.899 294.015 469.272 277.858 472.276L264.914 473.413L264.966 501.781C266.315 502.474 270.23 502.003 271.836 502.002L420.856 501.971C434.63 502.014 449.4 503.616 449.446 522.136L449.466 559.594C452.32 560.451 455.247 560.573 458.129 561.505C484.101 569.911 500.117 596.107 491.922 622.878C478.696 666.082 418.092 672.484 396.963 631.395C382.712 603.682 397.831 571.494 426.447 561.287C427.963 560.746 429.42 560.745 430.825 559.863L430.847 520.624C428.506 520.05 425.941 520.178 423.543 520.174L374.935 520.152C372.092 566.26 352.626 610.314 317.731 641.291C314.082 644.53 310.592 646.65 305.68 647.164C300.73 709.322 207.735 703.215 206.28 648.807C200.016 646.775 186.702 633.21 182.157 628.389C152.92 597.375 141.756 561.16 137.039 520.15L81.0278 520.186C80.274 524.395 80.7265 529.452 80.7242 533.749L80.7383 560.318C82.4202 561.051 84.1787 561.2 85.91 561.749C134.474 577.154 131.198 647.065 77.758 658.206C65.2531 660.813 52.3107 657.783 41.732 650.842C4.17479 626.203 13.2322 571.431 55.4319 560.827C57.7621 560.242 60.1817 560.107 62.5423 559.641L62.5566 525.013C62.8018 501.262 79.2111 501.922 97.6851 501.933L247.09 502.05L247.069 473.329C229.068 473.408 211.528 466.162 204.45 448.43C197.9 432.024 203.318 429.487 185.101 419.875L166.971 410.525C160.603 407.243 153.888 401.73 147.347 404.194L138.97 407.605C106.276 420.188 70.342 385.641 85.7164 376.512Z"/>
	<path fill="#3AE1D0" transform="matrix(0.559858 -0.00391401 0.00391401 0.559858 0 2.00398)" d="M86.6319 581.671C111.607 598.146 104.53 634.553 74.3668 640.308C62.5156 642.569 49.671 637.531 42.5109 627.805C68.5469 630.746 94.899 622.379 88.3201 590.488C87.8032 587.982 86.0956 584.409 86.574 581.945L86.6319 581.671Z"/>
	<path fill="#E72E2D" transform="matrix(0.559858 -0.00391401 0.00391401 0.559858 0 2.00398)" d="M452.377 578.592C460.463 580.542 467.336 586.426 471.663 593.411C493.636 628.879 435.117 661.01 414.412 624.5L414.214 624.141C416.981 624.098 419.224 626.353 421.895 627.244C443.935 634.597 476.337 609.06 456.874 583.875C455.562 582.177 453.409 580.718 452.495 578.849L452.377 578.592Z"/>
	<path fill="#FC5661" transform="matrix(0.559858 -0.00391401 0.00391401 0.559858 0 2.00398)" d="M414.214 624.141C398.896 597.364 424.141 571.077 452.377 578.592L452.495 578.849C453.409 580.718 455.562 582.177 456.874 583.875C476.337 609.06 443.935 634.597 421.895 627.244C419.224 626.353 416.981 624.098 414.214 624.141Z"/>
	<path fill="#B7DCF1" transform="matrix(0.559858 -0.00391401 0.00391401 0.559858 0 2.00398)" d="M42.5109 627.882C21.0322 602.993 53.9875 562.754 86.6319 581.671L86.574 581.945C86.0956 584.409 87.8032 587.982 88.3201 590.488C94.899 622.379 68.5469 630.746 42.5109 627.882Z"/>
	<path fill="#CEDAF5" transform="matrix(0.559858 -0.00391401 0.00391401 0.559858 0 2.00398)" d="M253.451 614.746C292.19 612.018 302.929 668.086 258.7 673.923C215.895 676.897 212.658 619.484 253.451 614.746Z"/>
	<path fill="#FFC403" transform="matrix(0.559858 -0.00391401 0.00391401 0.559858 0 2.00398)" d="M137.039 520.15L247.021 520.169L247.151 597.428C244.326 598.724 240.994 598.911 238.018 600.188C219.586 608.102 207.287 624.643 206.426 644.627C206.372 645.869 206.097 647.636 206.516 648.807C200.016 646.775 186.702 633.21 182.157 628.389C152.92 597.375 141.756 561.16 137.039 520.15Z"/>
	<path fill="#FFC403" transform="matrix(0.559858 -0.00391401 0.00391401 0.559858 0 2.00398)" d="M305.68 647.164C304.858 623.662 294.188 607.074 270.819 598.978C268.907 598.316 266.842 598.077 264.885 597.496L264.782 520.179L374.935 520.152C372.092 566.26 352.626 610.314 317.731 641.291C314.082 644.53 310.592 646.65 305.68 647.164Z"/>
	<path fill="#FFC403" transform="matrix(0.559858 -0.00391401 0.00391401 0.559858 0 2.00398)" d="M163.788 93.7172C171.857 103.134 181.207 95.0054 189.779 90.4462C202.698 83.5748 212.894 78.9986 216.737 63.6931C222.563 40.483 226.963 37.0991 252.937 37.0774C265.419 37.067 278.565 35.0194 287.855 45.368C296.659 55.1763 291.384 71.1566 307.349 82.5451C316.132 88.8097 326.302 93.3611 335.612 98.8234L350.361 107.76C374.885 123.163 368.699 115.096 392.787 114.769C408.956 114.551 415.95 124.85 422.383 137.186L430.765 152.973C438.222 166.617 447.257 179.867 431.502 193.269C406.083 214.893 412.692 223.165 412.647 254.678L412.531 267.548C411.987 297.18 437.339 295.967 442.649 315.484C444.718 323.086 443.214 330.634 439.834 337.611C436.926 343.611 436.306 348.925 443.422 352.779L443.807 352.971C440.414 355.678 440.515 368.359 428.443 375.504C425.513 373.837 421.008 374.348 417.86 375.136C408.646 383.615 405.51 393.531 389.681 392.88C377.858 392.395 366.816 381.88 355.004 386.221C349.47 388.254 344.218 391.473 338.949 394.123L318.093 404.583C313.168 407.169 308.052 409.837 303.901 413.587C284.721 430.913 305.678 455.387 258.197 455.526L240.091 455.504C234.62 455.319 228.962 452.367 225.301 448.381C214.905 437.063 220.383 421.578 203.945 410.296C193.925 403.419 182.15 398.403 171.314 392.898C144.076 379.061 152.394 386.378 128.606 392.01C118.183 394.477 110.189 391.201 103.104 383.375C96.5426 376.129 95.5037 374.332 85.7164 376.512C83.1277 373.661 79.7261 371.394 77.8506 367.94C75.8139 364.19 74.8053 353.989 70.9901 352.027C77.5188 342.231 74.1506 343.39 70.3922 333.944C68.051 328.06 66.9849 320.147 69.2845 314.124C77.0503 293.784 99.3774 298.809 99.3007 267.372L99.2145 229.37C99.1828 215.12 99.7948 210.739 88.16 200.134C65.3663 179.358 68.5857 175.98 81.554 151.455L88.7745 137.189C95.4192 123.716 103.501 114.547 120.186 114.984C127.278 115.169 138.814 116.683 137.568 105.011L143.472 103.187C146.726 101.974 162.609 96.3054 163.788 93.7172Z"/>
	<path transform="matrix(0.559858 -0.00391401 0.00391401 0.559858 0 2.00398)" d="M357.796 300.952L357.592 300.293C354.162 290.041 358.965 285.022 369 285.205C381.985 293.255 371.767 308.969 357.796 300.952Z"/>
	<path transform="matrix(0.559858 -0.00391401 0.00391401 0.559858 0 2.00398)" d="M338.649 309.349L338.721 309.581C340.99 320.648 326.782 321.268 319.825 321.273L179.336 321.266C175.476 321.252 171.392 321.381 167.569 320.844C141.809 317.227 117.485 294.989 114.599 268.632C111.468 240.026 128.775 211.829 156.852 203.908C161.684 202.545 166.726 201.903 171.705 201.363C173.63 195.21 175.627 189.262 178.518 183.481C208.28 123.978 289.855 123.275 320.586 183.684C323.468 189.35 325.587 195.274 327.548 201.307C358.928 201.809 383.099 227.48 384.553 258.21C384.917 265.889 382.11 268.284 374.506 268.494C365.396 265.125 367.094 261.068 365.832 252.944C363.085 235.262 347.646 220.257 329.56 219.169C325.775 218.941 320.743 219.664 317.202 218.475L316.853 218.364C310.103 215.973 309.878 203.671 307.766 198.007C286.016 139.652 205.441 144.129 188.861 205.046C186.843 212.461 187.17 218.813 178.134 219.021L169.794 219.209C167.74 219.321 165.636 219.956 163.647 220.469C125.152 230.412 121.704 280.825 155.443 298.466C165.399 303.672 173.423 303.372 184.306 303.374L322.969 303.366C330.359 303.368 334.383 302.181 338.649 309.349Z"/>
	<path fill="#B7DCF1" transform="matrix(0.559858 -0.00391401 0.00391401 0.559858 0 2.00398)" d="M338.649 309.349C334.383 302.181 330.359 303.368 322.969 303.366L184.306 303.374C173.423 303.372 165.399 303.672 155.443 298.466C121.704 280.825 125.152 230.412 163.647 220.469C165.636 219.956 167.74 219.321 169.794 219.209L178.134 219.021C187.17 218.813 186.843 212.461 188.861 205.046C205.441 144.129 286.016 139.652 307.766 198.007C309.878 203.671 310.103 215.973 316.853 218.364L317.202 218.475C320.743 219.664 325.775 218.941 329.56 219.169C347.646 220.257 363.085 235.262 365.832 252.944C367.094 261.068 365.396 265.125 374.506 268.494C372.604 272.279 370.531 283.31 369 285.205C358.965 285.022 354.162 290.041 357.592 300.293L357.796 300.952C351.416 304.196 344.696 304.977 338.649 309.349Z"/>
</svg>
